M48
METRIC,LZ,000.000
;FILE_FORMAT=3:3
;TYPE=PLATED
;Layer: PTH_Through
;EasyEDA v6.5.54, 2026-02-15 17:56:32
;a4d87242a151429fa1e5fcac2f042b83,fbf0f95a17c048ad8860a34c8ae0cefd,10
;Gerber Generator version 0.2
;Holesize 1 = 0.800 mm
T01C0.800
;Holesize 2 = 0.900 mm
T02C0.900
;Holesize 3 = 0.914 mm
T03C0.914
;Holesize 4 = 0.915 mm
T04C0.915
;Holesize 5 = 0.966 mm
T05C0.966
;Holesize 6 = 1.000 mm
T06C1.000
;Holesize 7 = 1.501 mm
T07C1.501
;Holesize 8 = 4.600 mm
T08C4.600
%
G05
G90
T01
X044069Y-073437G85X044069Y-073432
X044069Y-069337G85X044069Y-069332
X049377Y-002808
X051877Y-002808
X054377Y-002808
X056877Y-002808
X056877Y-007708
X056877Y-010208
X094177Y-004908
X096677Y-004808
X099177Y-004808
X057177Y-047908
X059677Y-047908
T02
X035941Y-053213
X046101Y-053213
X046228Y-058166
X036068Y-058166
X071755Y-077724
X081915Y-077724
X068707Y-077724
X058547Y-077724
T03
X056261Y-071120
T04
X016129Y-074549
X018669Y-074549
X027051Y-074549
X029845Y-074549
X016129Y-056007
X018669Y-056007
X027051Y-056007
X029845Y-056007
X058801Y-071120
X063881Y-071120
X066421Y-071120
X068961Y-071120
X071501Y-071120
X074041Y-071120
X076581Y-071120
X079121Y-071120
X081661Y-071120
X084201Y-071120
X084201Y-055880
X081661Y-055880
X079121Y-055880
X076581Y-055880
X074041Y-055880
X071501Y-055880
X068961Y-055880
X066421Y-055880
X063881Y-055880
X061341Y-055880
X058801Y-055880
X056261Y-055880
X061341Y-071120
X090678Y-072517
T05
X082042Y-083312
X084582Y-083312
X058547Y-082804
X061087Y-082804
T06
X097282Y-080137
X097282Y-077597
X097282Y-075057
X097282Y-072517
X097282Y-069977
X094742Y-069977
X094742Y-072517
X094742Y-075057
X094742Y-077597
X094742Y-080137
T07
X021877Y-018308
X021877Y-023308
X022177Y-029308
X022177Y-034308
X124177Y-040608
X124077Y-035608
X119253Y-004801
X114681Y-009525
X119253Y-009525
X114681Y-004826
T08
X014478Y-031071
X014478Y-038271
X133985Y-041827
X133985Y-034627
X014351Y-021380
X014351Y-014180
M30
